# xmcd
#
# Track frame offsets: 
#        150
#        15856
#        28479
#        44372
#        60556
#        73659
#        84925
#        107040
#        121658
#        136148
#        148232
#        171680
#        183933
#        204671
#        219583
#        232620
#        244605
#        258301
#
# Disc length: 3658 seconds
#
# Revision: 0
# Processed by: cddbd v1.5.2PL0 Copyright (c) Steve Scherf et al.
# Submitted via: ExactAudioCopy v0.95b3
#
DISCID=f90e4812
DTITLE=Aretha Franklin - Aretha Sings The Blues (Remaster)
DYEAR=1967
DGENRE=R&B
TTITLE0=Drinking Again
TTITLE1=Today I Sing The Blues
TTITLE2=What A Difference A Day Made
TTITLE3=Without The One You Love
TTITLE4=Trouble In Mind
TTITLE5=Muddy Water
TTITLE6=Only The Lonely
TTITLE7=I Wonder Where You Are Tonight
TTITLE8=Laughing On The Outside (Crying On The Inside)
TTITLE9=Take A Look
TTITLE10=Nobody Knows The Way I Feel This Morning
TTITLE11=Evil Gal Blues
TTITLE12=This Bitter Earth
TTITLE13=Maybe I'm A Fool
TTITLE14=Blue Holiday [Bonus Track]
TTITLE15=(Blue) By Myself [Bonus Track]
TTITLE16=God Bless The Child [Bonus Track]
TTITLE17=Misty [Bonus Track]
EXTD=
EXTT0=
EXTT1=
EXTT2=
EXTT3=
EXTT4=
EXTT5=
EXTT6=
EXTT7=
EXTT8=
EXTT9=
EXTT10=
EXTT11=
EXTT12=
EXTT13=
EXTT14=
EXTT15=
EXTT16=
EXTT17=
PLAYORDER=
